<svg id="Calque_1" data-name="Calque 1" xmlns="http://www.w3.org/2000/svg" viewBox="0 0 626.15 637.04"><defs><style>.cls-1,.cls-3{fill:none;stroke-miterlimit:10;}.cls-1{stroke:#1d1d1b;}.cls-2{fill:#c52950;}.cls-3{stroke:#f6f6f6;}</style></defs><path class="cls-1" d="M613.12,369.89" transform="translate(0)"/><path class="cls-1" d="M107.93,262.13c-1.08-.36-2.16-1.08-3.24-1.44" transform="translate(0)"/><path class="cls-2" d="M.55,395.22c-4.29-17.79,260.36,83.12,266.41-24l27.86-106.57L332.24,516.2a3,3,0,0,0,5.87.31l26.25-101c1.29-8.09,15.07-52.5,25.12-73.64,13.66-14,17.71-19.68,34.22-16.89,71,12,129,33.11,150,36.4,41.3,6.48,51.83,4.6,51.83,4.6C599.8,511.58,471,636.42,313,636.58,196.63,636.69,103.41,578.29,45.8,491A381.86,381.86,0,0,1,.55,395.22Z" transform="translate(0)"/><path class="cls-3" d="M625.53,365.94s-10.53,1.88-51.83-4.6c-21-3.29-79-24.4-150-36.4-16.51-2.79-20.56,2.88-34.22,16.89-10.05,21.14-23.83,65.55-25.12,73.64l-26.25,101a3,3,0,0,1-5.87-.31L294.82,264.65,267,371.24c-6,107.1-270.7,6.19-266.41,24A382.23,382.23,0,0,0,45.82,491c57.61,87.3,150.83,145.7,267.21,145.59C471,636.38,599.82,511.54,625.53,365.94Z" transform="translate(0)"/><path class="cls-2" d="M299.89,98.8a3,3,0,0,0-5.91-.15L250,320.72c-30.28,95.5-157.68,6.53-219.07-32.3-13.78-8.71-24.23-14.89-29.52-15.9C26.08,122.44,157.51.52,314.57.52c148.39,0,276,110.88,310,248.75-43,29.83-165.7,11.44-219.78,15.4-12.19.89-38.38,27.38-42.89,45.48-8.27,33.1-1.38,5.43-7.59,31l-13.14,39.46Z" transform="translate(0)"/><path class="cls-3" d="M624.58,249.25C590.52,111.38,463,.5,314.58.5,157.52.5,26.09,122.44,1.45,272.5c5.29,1,15.74,7.19,29.52,15.9C92.36,327.23,219.76,416.2,250,320.7L294,98.63a3,3,0,0,1,5.91.15l41.29,281.84,13.14-39.46c6.21-25.62-.68,2,7.59-31,4.51-18.1,30.7-44.59,42.89-45.48C458.88,260.69,581.61,279.13,624.58,249.25Z" transform="translate(0)"/></svg>